<?xml version="1.0" encoding="utf-8"?>
<!-- Generator: Adobe Illustrator 18.1.1, SVG Export Plug-In . SVG Version: 6.00 Build 0)  -->
<svg version="1.1" id="Layer_1" xmlns="http://www.w3.org/2000/svg" xmlns:xlink="http://www.w3.org/1999/xlink" x="0px" y="0px"
	 viewBox="0 0 44.9 33.3" enable-background="new 0 0 44.9 33.3" xml:space="preserve">
<path fill="#020202" d="M3.4,18.9H42c1.3,0,2.3-1,2.3-2.3v0c0-1.3-1-2.3-2.3-2.3H3.4c-1.3,0-2.3,1-2.3,2.3v0
	C1.1,17.8,2.2,18.9,3.4,18.9z"/>
<path fill="#020202" d="M5,18.2L16.7,6.5c0.9-0.9,0.9-2.4,0-3.3l0,0c-0.9-0.9-2.4-0.9-3.3,0L1.8,14.9c-0.9,0.9-0.9,2.4,0,3.3l0,0
	C2.7,19.1,4.1,19.1,5,18.2z"/>
<path fill="#020202" d="M5.1,14.9l11.7,11.7c0.9,0.9,0.9,2.4,0,3.3l0,0c-0.9,0.9-2.4,0.9-3.3,0L1.8,18.2c-0.9-0.9-0.9-2.4,0-3.3l0,0
	C2.7,14,4.2,14,5.1,14.9z"/>
</svg>
