<?xml version="1.0" encoding="utf-8"?>
<!-- Generator: Adobe Illustrator 18.1.1, SVG Export Plug-In . SVG Version: 6.00 Build 0)  -->
<svg version="1.1" id="Layer_1" xmlns="http://www.w3.org/2000/svg" xmlns:xlink="http://www.w3.org/1999/xlink" x="0px" y="0px"
	 viewBox="0 0 44.9 33.3" enable-background="new 0 0 44.9 33.3" xml:space="preserve">
<path fill="#020202" d="M41.9,18.9H3.4c-1.3,0-2.3-1-2.3-2.3v0c0-1.3,1-2.3,2.3-2.3h38.5c1.3,0,2.3,1,2.3,2.3v0
	C44.3,17.8,43.2,18.9,41.9,18.9z"/>
<path fill="#020202" d="M40.3,18.2L28.7,6.5c-0.9-0.9-0.9-2.4,0-3.3l0,0c0.9-0.9,2.4-0.9,3.3,0l11.7,11.7c0.9,0.9,0.9,2.4,0,3.3l0,0
	C42.7,19.1,41.2,19.1,40.3,18.2z"/>
<path fill="#020202" d="M40.3,14.9L28.6,26.6c-0.9,0.9-0.9,2.4,0,3.3l0,0c0.9,0.9,2.4,0.9,3.3,0l11.7-11.7c0.9-0.9,0.9-2.4,0-3.3
	l0,0C42.7,14,41.2,14,40.3,14.9z"/>
</svg>
