<?xml version="1.0" encoding="utf-8"?>
<!-- Generator: Adobe Illustrator 18.1.1, SVG Export Plug-In . SVG Version: 6.00 Build 0)  -->
<svg version="1.1" id="Layer_1" xmlns="http://www.w3.org/2000/svg" xmlns:xlink="http://www.w3.org/1999/xlink" x="0px" y="0px"
	 viewBox="0 0 769 182" enable-background="new 0 0 769 182" xml:space="preserve">
<path d="M216.3,153.4c-10.1,0-85.1,0-96.9,0c-1,0-1.9,0.5-2.4,1.3c-15.1,21.8-29.4,11-34.3-4.7l-0.2-0.7c-0.6-1.9,0.8-3.8,2.8-3.8
	H98c1.9,0,3.5-1.5,3.5-3.4v0c0-1.9-1.5-3.5-3.5-3.5H77.6c-2.3,0-4.4-1.5-5.1-3.8l0,0c-1.1-3.4,1.5-6.9,5.1-6.9h56.1
	c1.9,0,3.4-1.5,3.4-3.5s-1.5-3.5-3.4-3.5H75.9c-1.3,0-2.4-0.8-2.8-2.1l0,0c-0.6-1.9,0.8-3.8,2.8-3.8h8c1.9,0,3.4-1.5,3.4-3.4v0
	c0-1.9-1.5-3.5-3.4-3.5H76c-2.1,0-4-1.4-4.6-3.4v0c-1-3.1,1.4-6.3,4.6-6.3h27.9c1.9,0,3.5-1.5,3.5-3.4v0c0-1.9-1.5-3.5-3.5-3.5H64.6
	c-1.7,0-3.1-1.1-3.6-2.7v0c-0.8-2.4,1.1-4.9,3.6-4.9h13c1.9,0,3.5-1.5,3.5-3.5v0c0-1.9-1.5-3.4-3.5-3.4H66c-1.9,0-3.6-1.2-4.1-3v0
	c-0.9-2.8,1.2-5.6,4.1-5.6h21.6c1.9,0,3.5-1.5,3.5-3.5s-1.5-3.5-3.5-3.5H49.4c-1.5,0-2.9-1-3.3-2.4l0,0c-0.7-2.2,1-4.5,3.3-4.5h16.4
	c1.9,0,3.4-1.5,3.4-3.5c0-1.9-1.5-3.5-3.4-3.5L13.4,33.2c-2.9,0-5.4-1.9-6.3-4.6l0,0C5.8,24.3,9,20,13.4,20l255.5,14.3l-12,99.1
	c3.1,22.7-14.5,43-38.6,20.7C217.8,153.7,217.1,153.4,216.3,153.4z"/>
<g>
	<g>
		<path d="M328.3,148.1c0,0-2.7-1.4-8.1-4.3s-9.6-7-12.4-12.5c-2.9-5.5-4.3-12-4.3-19.8V97.7c0-7.6,1.4-14.1,4.3-19.5
			c2.9-5.4,7-9.5,12.4-12.4c5.4-2.8,12-4.3,19.6-4.3c4.4,0,8.5,0.5,12.4,1.6c3.9,1.1,7.3,2.6,10.4,4.6c3.1,2,5.6,4.4,7.7,7.3
			l-11.9,10.7c-2.4-2.7-5.2-4.8-8.3-6.2c-3.2-1.5-6.5-2.2-10-2.2c-6.4,0-11.3,1.8-14.8,5.3c-3.5,3.6-5.3,8.6-5.3,15.1v13.9
			c0,6.6,1.7,11.8,5.2,15.4c3.5,3.6,8.4,5.4,14.9,5.4c3.5,0,6.9-0.8,10-2.3c3.2-1.6,5.9-3.8,8.3-6.6l11.9,11.5
			c-2.1,2.8-4.7,5.2-7.8,7.2c-3.1,2-6.5,3.5-10.4,4.5c-3.9,1-8,1.5-12.3,1.5C332.1,148.1,328.3,148.1,328.3,148.1z"/>
		<path d="M392.1,141.7c-5.1-4.3-7.7-10.8-7.7-19.6c0-8.3,2.3-14.6,7-18.7c4.7-4.2,11.8-6.2,21.3-6.2h23.9l1.1,13.3h-24.9
			c-4.3,0-7.5,1-9.7,2.9c-2.1,1.9-3.2,4.8-3.2,8.8c0,4.3,1.4,7.4,4.3,9.5c2.8,2.1,7.1,3.1,12.9,3.1c6.3,0,11-0.7,14.1-2
			c3.1-1.3,4.7-3.5,4.7-6.3l1.7,11.8c-1.5,2.3-3.3,4.1-5.4,5.6c-2.1,1.5-4.6,2.6-7.4,3.3c-2.8,0.7-6,1.1-9.5,1.1
			C405,148.1,397.2,146,392.1,141.7z M435.9,93.6c0-5.5-1.5-9.8-4.4-12.8c-2.9-3-7.1-4.6-12.5-4.6c-3.3,0-6.6,0.5-9.8,1.5
			c-3.2,1-6.1,2.5-8.5,4.3l-12.1-8.3c3.2-3.8,7.4-6.8,12.6-9c5.2-2.1,11-3.2,17.4-3.2c7,0,12.9,1.2,17.9,3.7c5,2.5,8.7,6,11.3,10.7
			c2.6,4.7,3.9,10.3,3.9,16.9v54h-15.7V93.6z"/>
		<path d="M476.7,62.8h16.5v84.1h-16.5V62.8z M517.5,78.7c-2.2-0.9-4.8-1.4-7.7-1.4c-5.2,0-9.3,1.4-12.2,4.3
			c-2.9,2.9-4.3,6.9-4.3,12l-1.7-16.2c2.6-5,5.9-8.9,10-11.7c4.1-2.8,8.6-4.2,13.6-4.2c3.8,0,7.3,0.6,10.4,1.7
			c3.1,1.1,5.8,2.7,8.1,4.9L523,82.7C521.5,81,519.7,79.6,517.5,78.7z"/>
		<path d="M541.1,62.8H579v14.9h-37.9V62.8z M554.5,141.7c-3.2-3.8-4.7-9.3-4.7-16.6V38.4h16.5v86.8c0,2.1,0.4,3.6,1.2,4.7
			c0.8,1.1,2,1.7,3.6,1.7h7.9v15.7h-9.6C562.6,147.3,557.6,145.4,554.5,141.7z"/>
		<path d="M624.4,148.1c0,0-2.8-1.5-8.3-4.4c-5.5-2.9-9.7-7.2-12.6-12.8c-2.9-5.6-4.3-12.5-4.3-20.5V101c0-8.3,1.4-15.4,4.2-21.3
			c2.8-5.9,6.8-10.4,12.1-13.4c5.3-3.1,11.7-4.6,19.1-4.6c7,0,13,1.8,18,5.3c5,3.5,8.8,8.6,11.4,15.2c2.6,6.6,3.9,14.6,3.9,23.9v5.5
			h-56.7V98.2h41c-0.5-6.9-2.3-12.2-5.3-16c-3.1-3.8-7.1-5.7-12.3-5.7c-6.3,0-11.1,2.1-14.5,6.2c-3.4,4.1-5.1,9.9-5.1,17.4v10.7
			c0,7,1.8,12.3,5.5,16c3.7,3.7,8.9,5.6,15.6,5.6c3.3,0,6.7-0.7,10-2c3.3-1.3,6.2-3.2,8.8-5.7l10.9,10.9c-4.2,4-8.8,7.1-14,9.3
			c-5.2,2.2-10.4,3.3-15.6,3.3C628.3,148.1,624.4,148.1,624.4,148.1z"/>
		<path d="M701.5,144.3c-4.3-2.7-7.7-6.6-9.9-11.7c-2.3-5.1-3.4-11.3-3.4-18.5V95.6c0-7.2,1.1-13.4,3.3-18.5c2.2-5.1,5.4-9,9.7-11.7
			c4.2-2.7,9.3-4,15.3-4c5,0,9.5,1.3,13.6,3.9c4.1,2.6,7.5,6.2,10,10.9l-1.7,17.2c0-3.6-0.6-6.6-1.9-9.2c-1.3-2.5-3.2-4.5-5.6-5.8
			c-2.5-1.3-5.4-2-8.9-2c-5.5,0-9.7,1.7-12.7,5.1c-3,3.4-4.5,8.2-4.5,14.3v18.3c0,6.1,1.5,10.8,4.5,14.1c3,3.3,7.2,5,12.7,5
			c3.5,0,6.5-0.7,8.9-2.1c2.5-1.4,4.3-3.4,5.6-6s1.9-5.7,1.9-9.3l1.1,17.7c-1.7,4.2-4.4,7.6-8.2,10.4c-3.8,2.8-8.5,4.2-14.1,4.2
			C711.1,148.3,705.8,147,701.5,144.3z M738.4,29.1h16.5v117.8h-16.5V29.1z"/>
	</g>
	<path d="M529.2,69"/>
	<path d="M529.2,69"/>
</g>
</svg>
